# xmcd
#
# Track frame offsets: 
#        150
#        15619
#        29744
#        45190
#        58584
#        70737
#        84117
#        98712
#        110656
#        127700
#        142047
#        157329
#        166651
#
# Disc length: 2441 seconds
#
# Revision: 1
# Processed by: cddbd v1.5.1PL2 Copyright (c) Steve Scherf et al.
# Submitted via: ExactAudioCopy v0.95b2
#
DISCID=a009870d
DTITLE=Larry O. Moan - You'll See Me No Mo'
DYEAR=1999
DGENRE=Blues
TTITLE0=Pony Blues
TTITLE1=You'll See Me No Mo'
TTITLE2=Can't Find Nobody
TTITLE3=I Be's Troubled
TTITLE4=Blue Over You
TTITLE5=Write Me a Few Lines
TTITLE6=When I Ain`t Got No Penny
TTITLE7=Luck Will Take Me By The Hand
TTITLE8=Rollin' Stone
TTITLE9=History In My Garbagecan
TTITLE10=Lorraine
TTITLE11=Mule's Dance
TTITLE12=Come On In My Kitchen
EXTD=
EXTT0=
EXTT1=
EXTT2=
EXTT3=
EXTT4=
EXTT5=
EXTT6=
EXTT7=
EXTT8=
EXTT9=
EXTT10=
EXTT11=
EXTT12=
PLAYORDER=
